<svg xmlns="http://www.w3.org/2000/svg" fill="#abd8ff" viewBox="0 0 491.582 491.582"><path d="M366.699 426.976c-29.223 11.323-64.107 16.943-104.736 16.943-42.127 0-79.55-6.744-112.228-20.231-32.719-13.529-58.112-34.967-76.22-64.357-18.067-29.389-27.1-62.025-27.1-97.867 0-36.84 8.076-72.307 24.311-106.359 16.235-34.093 40.337-60.485 72.391-79.259 32.012-18.775 71.017-28.182 117.057-28.182 54.2 0 96.41 14.07 126.673 42.211 30.222 28.098 45.333 63.066 45.333 104.818 0 23.312-5.328 45.79-16.027 67.562-10.698 21.729-24.727 39.047-42.044 51.952-12.947 9.866-23.478 14.778-31.596 14.778-2.747 0-5.078-1.041-7.035-3.163-1.957-2.124-2.914-5.328-2.914-9.575 0-3.372 1.165-10.864 3.58-22.396l38.465-182.703h-67.271l-6.368 28.265c-14.445-23.103-36.8-34.634-67.021-34.634-42.46 0-77.303 20.023-104.485 60.111-22.437 32.969-33.635 69.393-33.635 109.314 0 32.303 9.282 58.154 27.89 77.595 18.607 19.481 42.002 29.181 70.226 29.181 26.143 0 49.246-9.658 69.311-29.056 2.372 9.533 7.118 16.734 14.278 21.688 7.118 4.912 17.733 7.368 31.845 7.368 52.326 0 95.203-22.063 128.671-66.23 26.684-35.009 40.004-74.18 40.004-117.473 0-36.383-8.784-69.893-26.351-100.531-17.608-30.68-43.042-54.324-76.345-70.975C342.055 9.117 304.008.791 261.214.791c-50.452 0-95.328 10.324-134.541 30.971-39.255 20.648-70.184 51.536-92.746 92.747C11.323 165.72 0 210.179 0 257.926c0 43.459 9.949 83.671 29.847 120.637 19.856 36.966 50.203 64.897 90.956 83.838 40.754 18.941 89.166 28.39 145.239 28.39 57.946 0 107.025-11.198 147.279-33.635 35.176-19.523 61.276-46.54 78.26-81.007h-54.283c-17.858 22.604-41.377 39.545-70.599 50.827zm-89.583-161.182c-6.535 19.898-14.278 35.009-23.312 45.374-6.286 7.284-12.654 12.655-19.107 16.068-8.492 4.745-17.567 7.118-27.266 7.118-12.905 0-23.728-5.078-32.47-15.278-8.741-10.199-13.113-26.1-13.113-47.664 0-16.151 3.122-34.634 9.408-55.531s15.61-37.007 28.015-48.288c12.405-11.323 25.935-16.984 40.545-16.984 13.571 0 24.852 5.162 33.76 15.444 8.908 10.282 13.363 25.018 13.363 44.209.001 17.15-3.246 35.675-9.823 55.532z"/></svg>