<?xml version="1.0" encoding="utf-8"?>
<!-- Generator: Adobe Illustrator 16.0.2, SVG Export Plug-In . SVG Version: 6.00 Build 0)  -->
<!DOCTYPE svg PUBLIC "-//W3C//DTD SVG 1.1//EN" "http://www.w3.org/Graphics/SVG/1.1/DTD/svg11.dtd">
<svg version="1.1" xmlns="http://www.w3.org/2000/svg" xmlns:xlink="http://www.w3.org/1999/xlink" x="0px" y="0px"
	 width="53.997px" height="54px" viewBox="0 0 53.997 54" enable-background="new 0 0 53.997 54" xml:space="preserve">
<g id="Forma_1_1_" enable-background="new    ">
</g>
<g id="_x31_.svg_1_" enable-background="new    ">
</g>
<g id="_x32_.svg_1_" enable-background="new    ">
	<g id="_x32_.svg">
		<g>
			<path fill-rule="evenodd" clip-rule="evenodd" fill="#FFFFFF" d="M40.933,3.483c-5.282,0-9.58,4.299-9.58,9.581
				s4.298,9.581,9.58,9.581s9.58-4.299,9.58-9.581S46.215,3.483,40.933,3.483z M40.933,20.903c-4.322,0-7.838-3.517-7.838-7.839
				c0-4.323,3.516-7.839,7.838-7.839s7.838,3.516,7.838,7.839C48.771,17.387,45.255,20.903,40.933,20.903z M53.997,13.064
				C53.997,5.86,48.136,0,40.933,0S27.87,5.86,27.87,13.064c0,5.675,3.643,10.503,8.709,12.303v2.504h-1.742v1.741h1.742v13.065
				c0,2.4,1.954,4.354,4.354,4.354c2.401,0,4.354-1.954,4.354-4.354V29.612h1.742v-1.741h-1.742v-2.504
				C50.354,23.567,53.997,18.739,53.997,13.064z M43.546,42.678c0,1.439-1.172,2.612-2.613,2.612s-2.613-1.173-2.613-2.612V29.612
				h5.226V42.678z M43.546,27.871H38.32v-2.005c0.845,0.171,1.718,0.263,2.613,0.263s1.768-0.092,2.613-0.263V27.871z
				 M40.933,24.387c-6.243,0-11.322-5.079-11.322-11.322S34.69,1.742,40.933,1.742s11.322,5.079,11.322,11.322
				S47.176,24.387,40.933,24.387z M27.353,32.467l1.736-2.902l-4.657-4.656l-2.902,1.736c-0.556-0.277-1.136-0.517-1.737-0.715
				l-0.825-3.284h-6.584L11.56,25.93c-0.601,0.199-1.182,0.438-1.737,0.715L6.92,24.908l-4.657,4.656L4,32.467
				c-0.278,0.556-0.517,1.137-0.716,1.737L0,35.03v6.585l3.284,0.825c0.2,0.601,0.438,1.182,0.715,1.737L2.263,47.08l4.657,4.657
				L9.821,50c0.556,0.277,1.137,0.517,1.738,0.715L12.385,54h6.585l0.825-3.285c0.601-0.199,1.182-0.438,1.737-0.715l2.902,1.737
				l4.657-4.657l-1.736-2.902c0.277-0.556,0.516-1.137,0.715-1.737l3.284-0.826V35.03l-3.284-0.825
				C27.87,33.604,27.631,33.022,27.353,32.467z M29.611,40.256l-2.927,0.736l-0.139,0.481c-0.236,0.816-0.557,1.594-0.953,2.312
				l-0.241,0.439l1.547,2.585l-2.735,2.735l-2.585-1.547l-0.439,0.241c-0.718,0.396-1.496,0.717-2.312,0.953l-0.481,0.139
				l-0.735,2.927h-3.867l-0.736-2.927l-0.481-0.14c-0.816-0.236-1.594-0.557-2.312-0.953l-0.439-0.241l-2.586,1.547L4.455,46.81
				l1.546-2.587L5.76,43.784c-0.396-0.718-0.717-1.496-0.953-2.312l-0.139-0.481l-2.926-0.735v-3.867l2.927-0.736l0.14-0.481
				c0.236-0.815,0.557-1.594,0.953-2.312l0.241-0.438l-1.546-2.586L7.19,27.1l2.586,1.547l0.438-0.241
				c0.718-0.396,1.497-0.717,2.312-0.953l0.482-0.139l0.735-2.927h3.866l0.736,2.928l0.481,0.14
				c0.816,0.235,1.594,0.556,2.312,0.952l0.439,0.241l2.585-1.547l2.735,2.735l-1.547,2.586l0.241,0.438
				c0.396,0.718,0.717,1.496,0.953,2.312l0.139,0.482l2.927,0.734V40.256z M15.677,28.741c-5.282,0-9.58,4.299-9.58,9.581
				s4.298,9.581,9.58,9.581c5.282,0,9.58-4.299,9.58-9.581S20.958,28.741,15.677,28.741z M15.677,46.161
				c-4.322,0-7.838-3.517-7.838-7.839s3.516-7.839,7.838-7.839s7.838,3.517,7.838,7.839S19.999,46.161,15.677,46.161z
				 M15.677,33.968c-2.401,0-4.354,1.953-4.354,4.354h1.742c0-1.44,1.172-2.612,2.613-2.612c1.44,0,2.613,1.172,2.613,2.612
				s-1.172,2.613-2.613,2.613v1.742c2.401,0,4.354-1.954,4.354-4.355S18.078,33.968,15.677,33.968z M5.226,20.903h1.742v-3.484
				h1.742V6.968H6.967V3.483H5.226v3.484H3.484v10.451h1.742V20.903z M5.226,8.71h1.742v6.967H5.226V8.71z M13.935,17.419h1.742
				V8.71h1.742V3.483h-1.742V0h-1.742v3.483h-1.742V8.71h1.742V17.419z M13.935,5.226h1.742v1.742h-1.742V5.226z M22.644,23.516
				h1.742v-3.483h1.742v-6.968h-1.742V6.097h-1.742v6.968h-1.742v6.968h1.742V23.516z M22.644,14.806h1.742v3.484h-1.742V14.806z"/>
		</g>
	</g>
</g>
<g id="arrow.svg_1_" enable-background="new    ">
</g>
<g id="_x33_.svg_1_" enable-background="new    ">
</g>
<g id="_x34_.svg_1_" enable-background="new    ">
</g>
<g id="_x35_.svg_1_" enable-background="new    ">
</g>
<g id="lcd.svg_xA0_Изображение_1_">
</g>
<g id="clean.svg_xA0_Изображение_1_">
</g>
<g id="hdd.svg_xA0_Изображение_1_">
</g>
<g id="repair.svg_xA0_Изображение_1_">
</g>
</svg>
