<svg version="1.1" xmlns="http://www.w3.org/2000/svg" xmlns:xlink="http://www.w3.org/1999/xlink" x="0px" y="0px"
	 width="56.996px" height="54.977px" viewBox="0 0 56.996 54.977" enable-background="new 0 0 56.996 54.977" xml:space="preserve">
<g id="Forma_1_1_" enable-background="new    ">
</g>
<g id="_x31_.svg_1_" enable-background="new    ">
</g>
<g id="_x32_.svg_1_" enable-background="new    ">
</g>
<g id="arrow.svg_1_" enable-background="new    ">
</g>
<g id="_x33_.svg_1_" enable-background="new    ">
</g>
<g id="_x34_.svg_1_" enable-background="new    ">
</g>
<g id="_x35_.svg_1_" enable-background="new    ">
</g>
<g id="lcd.svg_1_" enable-background="new    ">
</g>
<g id="clean.svg_1_" enable-background="new    ">
</g>
<g id="hdd.svg_1_" enable-background="new    ">
</g>
<g id="repair.svg_1_" enable-background="new    ">
	<g id="repair.svg">
		<g>
			<linearGradient id="SVGID_1_" gradientUnits="userSpaceOnUse" x1="53.7588" y1="3.0229" x2="3.3984" y2="53.3834">
				<stop  offset="0" style="stop-color:#1F387D"/>
				<stop  offset="1" style="stop-color:#4179D3"/>
			</linearGradient>
			<path fill-rule="evenodd" clip-rule="evenodd" fill="url(#SVGID_1_)" d="M56.875,42.197c-0.479-1.566-1.339-2.989-2.504-4.142
				c-1.856-1.861-4.382-2.905-7.015-2.898c-1.345,0.001-2.676,0.272-3.914,0.801l-9.758-9.732L46.64,13.4l3.068-0.087
				c0.371-0.011,0.71-0.211,0.9-0.529l4.391-7.364c0.255-0.425,0.188-0.969-0.163-1.319l-3.795-3.785
				c-0.352-0.35-0.896-0.416-1.323-0.162l-7.383,4.38c-0.319,0.188-0.52,0.527-0.531,0.897l-0.087,3.05L28.794,21.349l0,0
				l-8.869-8.846c0.931-5.385-2.691-10.504-8.09-11.433c-2.502-0.43-5.074,0.112-7.187,1.517C4.152,2.921,4.022,3.593,4.357,4.088
				c0.095,0.139,0.22,0.255,0.367,0.337l4.922,2.736c1.084,0.616,1.301,2.454,0.423,4.012c-0.878,1.557-2.559,2.357-3.654,1.752
				l-4.564-2.466c-0.524-0.288-1.184-0.098-1.472,0.426c-0.1,0.181-0.146,0.386-0.132,0.591c0.343,5.454,5.054,9.598,10.522,9.256
				c1.129-0.071,2.239-0.334,3.28-0.778l8.083,8.029c-0.004,0.004-0.017,0.017-0.017,0.017l-3.491,3.482l-0.792-0.779
				c-0.876-0.836-2.257-0.836-3.133,0l-1.084,1.081c-0.826,0.803-0.878,2.109-0.119,2.974L0.669,47.528
				c-0.865,0.826-0.896,2.194-0.067,3.058c0.022,0.023,0.044,0.046,0.067,0.067l3.665,3.655c0.828,0.863,2.201,0.894,3.066,0.067
				c0.023-0.022,0.045-0.045,0.067-0.067l12.837-12.793c0.867,0.757,2.177,0.705,2.981-0.118l1.084-1.082
				c0.865-0.826,0.896-2.194,0.068-3.058c-0.022-0.022-0.045-0.046-0.068-0.067l-0.792-0.79l3.47-3.535l10.517,10.489
				c-0.909,5.389,2.735,10.492,8.138,11.398c3.2,0.536,6.461-0.522,8.732-2.834c0.398-0.446,0.359-1.13-0.088-1.527
				c-0.116-0.103-0.252-0.179-0.399-0.225l-6.104-1.633c-0.598-0.192-1.072-0.652-1.279-1.244c-0.317-0.815-0.355-1.712-0.108-2.552
				c0.455-1.697,1.897-2.909,3.112-2.584l6.039,1.622c0.097,0.014,0.196,0.014,0.293,0c0.599,0.007,1.09-0.471,1.097-1.068
				C56.998,42.53,56.957,42.354,56.875,42.197z M43.7,9.446c0.086-0.153,0.138-0.323,0.143-0.501l0.087-2.888l6.147-3.644
				l2.602,2.595l-3.578,6.121l-2.949,0.107c-0.131,0.003-0.259,0.032-0.378,0.08c0,0-7.073,7.087-13.487,13.515l-2.057-2.052
				C36.652,16.423,43.7,9.446,43.7,9.446z M5.928,52.772l-3.719-3.687L15.1,36.261l1.865,1.859l1.778,1.839L5.928,52.772z
				 M21.79,39.797l-1.431-1.438l-0.553-0.552l-4.554-4.574l1.084-1.081l6.505,6.574L21.79,39.797z M22.101,35.039l-2.181-2.053
				c0,0,1.453-1.438,3.632-3.595l2.102,2.087C23.52,33.616,22.101,35.039,22.101,35.039z M50.098,40.067
				c-0.322-0.087-0.653-0.131-0.986-0.13c-2.364,0.19-4.315,1.919-4.781,4.238c-0.37,1.303-0.298,2.69,0.206,3.947
				c0.465,1.21,1.473,2.131,2.722,2.487l4.033,1.081c-3.678,2.187-8.436,0.984-10.628-2.684c-1.029-1.723-1.347-3.777-0.886-5.729
				c0.083-0.362-0.028-0.743-0.293-1.006L15.046,17.877c-0.347-0.325-0.866-0.386-1.279-0.151c-1.12,0.589-2.366,0.897-3.632,0.897
				c-3.262,0.003-6.175-2.034-7.286-5.093l2.472,1.373c0.576,0.322,1.226,0.489,1.886,0.486c2.007-0.115,3.803-1.284,4.716-3.071
				c1.475-2.627,0.9-5.752-1.269-6.963L7.5,3.57c4.032-1.437,8.468,0.659,9.908,4.681c0.5,1.396,0.587,2.905,0.25,4.35
				c-0.082,0.362,0.028,0.742,0.293,1.005l24.492,24.418c0.335,0.334,0.849,0.412,1.269,0.194c1.12-0.589,2.366-0.897,3.632-0.897
				c2.746-0.002,5.287,1.446,6.679,3.807L50.098,40.067z"/>
		</g>
	</g>
</g>
</svg>
