<?xml version="1.0" encoding="utf-8"?>
<!-- Generator: Adobe Illustrator 16.0.2, SVG Export Plug-In . SVG Version: 6.00 Build 0)  -->
<!DOCTYPE svg PUBLIC "-//W3C//DTD SVG 1.1//EN" "http://www.w3.org/Graphics/SVG/1.1/DTD/svg11.dtd">
<svg version="1.1" xmlns="http://www.w3.org/2000/svg" xmlns:xlink="http://www.w3.org/1999/xlink" x="0px" y="0px"
	 width="55.992px" height="53.976px" viewBox="0 0 55.992 53.976" enable-background="new 0 0 55.992 53.976" xml:space="preserve">
<g id="Forma_1_1_" enable-background="new    ">
</g>
<g id="_x31_.svg_1_" enable-background="new    ">
</g>
<g id="_x32_.svg_1_" enable-background="new    ">
</g>
<g id="arrow.svg_1_" enable-background="new    ">
</g>
<g id="_x33_.svg_1_" enable-background="new    ">
</g>
<g id="_x34_.svg_1_" enable-background="new    ">
	<g id="_x34_.svg">
		<g>
			<path fill-rule="evenodd" clip-rule="evenodd" fill="#FFFFFF" d="M55.873,41.429c-0.471-1.537-1.315-2.935-2.461-4.066
				c-1.823-1.827-4.305-2.852-6.891-2.845c-1.322,0.001-2.63,0.268-3.846,0.785l-9.586-9.555l12.729-12.592l3.015-0.085
				c0.364-0.011,0.697-0.208,0.884-0.521l4.313-7.23c0.251-0.417,0.185-0.95-0.16-1.295L50.143,0.31
				c-0.346-0.344-0.881-0.409-1.3-0.159l-7.253,4.3c-0.313,0.186-0.511,0.518-0.522,0.881l-0.085,2.994L28.286,20.96l-8.713-8.686
				c0.915-5.286-2.643-10.312-7.947-11.224c-2.458-0.423-4.984,0.11-7.06,1.488C4.079,2.869,3.951,3.528,4.28,4.014
				c0.093,0.136,0.216,0.249,0.36,0.33l4.836,2.687c1.065,0.605,1.278,2.41,0.415,3.938c-0.862,1.529-2.514,2.314-3.589,1.721
				l-4.484-2.421c-0.516-0.283-1.163-0.096-1.446,0.418c-0.098,0.177-0.144,0.378-0.13,0.58c0.337,5.354,4.965,9.423,10.337,9.087
				c1.109-0.069,2.199-0.328,3.222-0.764l7.94,7.883c-0.004,0.004-0.016,0.016-0.016,0.016l-3.43,3.419l-0.777-0.764
				c-0.861-0.821-2.218-0.821-3.078,0l-1.065,1.062c-0.812,0.787-0.863,2.07-0.117,2.92L0.657,46.664
				c-0.85,0.811-0.88,2.155-0.066,3.002c0.021,0.022,0.044,0.045,0.066,0.066l3.601,3.589c0.813,0.847,2.162,0.877,3.012,0.065
				c0.022-0.021,0.045-0.043,0.066-0.065l12.61-12.561c0.853,0.743,2.14,0.692,2.93-0.116l1.064-1.062
				c0.851-0.812,0.88-2.155,0.066-3.002c-0.021-0.022-0.043-0.045-0.066-0.066l-0.777-0.775l3.408-3.472l10.332,10.299
				c-0.893,5.291,2.687,10.301,7.995,11.19c3.144,0.527,6.348-0.512,8.578-2.782c0.392-0.438,0.353-1.108-0.087-1.499
				c-0.113-0.101-0.247-0.176-0.393-0.221l-5.996-1.604c-0.588-0.188-1.053-0.64-1.257-1.221c-0.312-0.801-0.35-1.682-0.106-2.506
				c0.447-1.666,1.863-2.855,3.057-2.537l5.933,1.593c0.096,0.014,0.192,0.014,0.287,0c0.589,0.007,1.071-0.462,1.078-1.049
				C55.994,41.756,55.953,41.584,55.873,41.429z M42.93,9.274c0.085-0.149,0.136-0.316,0.141-0.491l0.085-2.835l6.039-3.578
				l2.557,2.548l-3.515,6.01l-2.897,0.106c-0.129,0.003-0.254,0.031-0.372,0.078c0,0-6.947,6.958-13.249,13.269l-2.021-2.014
				C36.007,16.125,42.93,9.274,42.93,9.274z M5.823,51.813l-3.653-3.62l12.664-12.592l1.832,1.826l1.747,1.805L5.823,51.813z
				 M21.405,39.073L20,37.661l-0.543-0.542l-4.474-4.49l1.064-1.063l6.391,6.455L21.405,39.073z M21.711,34.401l-2.143-2.015
				c0,0,1.427-1.411,3.567-3.529l2.065,2.05C23.105,33.004,21.711,34.401,21.711,34.401z M49.216,39.338
				c-0.316-0.085-0.642-0.128-0.969-0.128c-2.322,0.188-4.239,1.885-4.697,4.162c-0.363,1.278-0.293,2.641,0.202,3.875
				c0.456,1.188,1.446,2.092,2.674,2.442l3.962,1.062c-3.613,2.146-8.287,0.966-10.44-2.636c-1.012-1.691-1.323-3.708-0.871-5.625
				c0.081-0.355-0.027-0.729-0.288-0.987L14.78,17.552c-0.34-0.319-0.851-0.38-1.257-0.148c-1.1,0.578-2.324,0.881-3.567,0.881
				c-3.205,0.003-6.067-1.997-7.158-5.001l2.429,1.349c0.566,0.316,1.204,0.48,1.854,0.478c1.972-0.113,3.735-1.261,4.633-3.015
				c1.449-2.58,0.885-5.648-1.246-6.837l-3.1-1.753c3.961-1.41,8.319,0.647,9.734,4.596c0.49,1.37,0.576,2.853,0.246,4.27
				c-0.081,0.356,0.027,0.729,0.287,0.988l24.062,23.973c0.329,0.328,0.833,0.405,1.246,0.19c1.1-0.577,2.324-0.88,3.568-0.881
				c2.697-0.002,5.193,1.42,6.561,3.737L49.216,39.338z"/>
		</g>
	</g>
</g>
<g id="_x35_.svg_1_" enable-background="new    ">
</g>
<g id="lcd.svg_xA0_Изображение_1_">
</g>
<g id="clean.svg_xA0_Изображение_1_">
</g>
<g id="hdd.svg_xA0_Изображение_1_">
</g>
<g id="repair.svg_xA0_Изображение_1_">
</g>
</svg>
