<?xml version="1.0" encoding="utf-8"?>
<!-- Generator: Adobe Illustrator 16.0.2, SVG Export Plug-In . SVG Version: 6.00 Build 0)  -->
<!DOCTYPE svg PUBLIC "-//W3C//DTD SVG 1.1//EN" "http://www.w3.org/Graphics/SVG/1.1/DTD/svg11.dtd">
<svg version="1.1" xmlns="http://www.w3.org/2000/svg" xmlns:xlink="http://www.w3.org/1999/xlink" x="0px" y="0px"
	 width="61.997px" height="53.995px" viewBox="0 0 61.997 53.995" enable-background="new 0 0 61.997 53.995" xml:space="preserve">
<g id="Forma_1_1_" enable-background="new    ">
</g>
<g id="_x31_.svg_1_" enable-background="new    ">
</g>
<g id="_x32_.svg_1_" enable-background="new    ">
</g>
<g id="arrow.svg_1_" enable-background="new    ">
</g>
<g id="_x33_.svg_1_" enable-background="new    ">
	<g id="_x33_.svg">
		<g>
			<path fill-rule="evenodd" clip-rule="evenodd" fill="#FFFFFF" d="M61.694,25.233L45.643,9.108l6.777-7.351
				c0.396-0.414,0.382-1.071-0.029-1.469c-0.411-0.396-1.065-0.384-1.461,0.029c-0.009,0.01-0.017,0.018-0.024,0.027l-7.439,8.07
				l-7.22,7.253c-0.403,0.405-0.403,1.063,0,1.468l0.492,0.495l-2.848,2.718c-0.192,0.184-0.447,0.285-0.712,0.284h-4.236
				c-0.109,0.005-0.218,0.016-0.325,0.031l-3.44-3.99l0.574-0.576c0.403-0.405,0.403-1.063,0-1.468l-7.22-7.246l-6.406-7.028
				c-0.385-0.424-1.038-0.453-1.46-0.065c-0.421,0.387-0.45,1.043-0.064,1.467l5.753,6.313L0.303,24.195
				c-0.403,0.405-0.403,1.063,0,1.468l7.233,7.267c0.403,0.405,1.058,0.405,1.461,0L9.3,32.626l4.576,4.598l-0.695,0.663
				c-1.35,1.268-1.421,3.394-0.159,4.749c0.051,0.055,0.104,0.108,0.159,0.16c0.675,0.638,1.569,0.99,2.496,0.985h0.015
				c0.009,0.918,0.391,1.792,1.058,2.421c0.676,0.637,1.568,0.989,2.495,0.983h0.016c0.009,0.918,0.391,1.793,1.057,2.421
				c0.676,0.637,1.569,0.989,2.496,0.983h0.015c0.008,0.919,0.391,1.793,1.058,2.421c1.407,1.312,3.583,1.312,4.99,0l0.889-0.847
				l0.835,0.858c0.672,0.632,1.56,0.979,2.479,0.973c1.946,0.004,3.563-1.505,3.705-3.455c0.945-0.016,1.849-0.397,2.52-1.067
				c0.669-0.629,1.052-1.508,1.058-2.429c0.963-0.004,1.887-0.379,2.583-1.046c0.665-0.626,1.047-1.498,1.058-2.415
				c0.009,0,0.018,0,0.026,0c0.912,0.007,1.791-0.339,2.456-0.965c0.666-0.625,1.045-1.498,1.046-2.413
				c-0.001-0.936-0.388-1.828-1.069-2.467l-0.021-0.021l5.279-5.037L53,33.968c0.403,0.406,1.058,0.406,1.461,0l7.233-7.267
				C62.098,26.296,62.098,25.639,61.694,25.233z M8.267,30.729l-5.772-5.8L17.786,9.564l5.772,5.8L8.267,30.729z M16.747,41.292
				c-0.604,0.563-1.54,0.563-2.144-0.001c-0.521-0.477-0.56-1.287-0.086-1.811c0.027-0.03,0.056-0.059,0.086-0.086l4.161-3.971
				c0.604-0.565,1.541-0.565,2.146,0c0.521,0.477,0.56,1.288,0.085,1.813c-0.027,0.03-0.056,0.059-0.085,0.085L16.747,41.292z
				 M20.315,44.695c-0.608,0.555-1.536,0.555-2.145,0c-0.521-0.477-0.56-1.289-0.085-1.813c0.027-0.029,0.056-0.058,0.085-0.085
				l4.162-3.97c0.604-0.565,1.54-0.565,2.145,0c0.521,0.477,0.56,1.287,0.085,1.811c-0.026,0.03-0.055,0.059-0.085,0.086
				L20.315,44.695z M23.884,48.099c-0.604,0.565-1.541,0.565-2.146,0c-0.521-0.478-0.56-1.289-0.084-1.813
				c0.026-0.03,0.055-0.059,0.084-0.086l4.162-3.971c0.605-0.564,1.541-0.564,2.146,0c0.521,0.479,0.558,1.292,0.081,1.816
				c-0.025,0.028-0.053,0.056-0.081,0.082L23.884,48.099z M27.451,51.506c-0.604,0.565-1.541,0.565-2.145,0
				c-0.521-0.477-0.56-1.288-0.085-1.812c0.026-0.029,0.055-0.058,0.085-0.085l4.163-3.974c0.607-0.555,1.535-0.555,2.144,0
				c0.521,0.478,0.56,1.289,0.085,1.813c-0.027,0.03-0.056,0.059-0.085,0.085L27.451,51.506z M34.202,51.479
				c-0.593,0.579-1.528,0.606-2.154,0.063l-0.787-0.809l1.775-1.693c0.146-0.143,0.28-0.299,0.399-0.465l0.984,0.988
				c0.21,0.195,0.328,0.473,0.323,0.761c-0.021,0.441-0.216,0.855-0.543,1.15L34.202,51.479z M45.063,41.116
				c-0.603,0.551-1.527,0.539-2.115-0.028l-3.188-3.04c-0.414-0.396-1.069-0.379-1.463,0.037s-0.377,1.074,0.036,1.47l3.187,3.041
				c0.263,0.245,0.412,0.588,0.414,0.947c-0.012,0.396-0.19,0.766-0.492,1.02c-0.604,0.566-1.541,0.566-2.145,0l-2.921-2.785
				c-0.413-0.396-1.067-0.378-1.461,0.038c-0.393,0.416-0.375,1.073,0.039,1.469l2.92,2.785c0.262,0.245,0.411,0.589,0.413,0.948
				c-0.012,0.395-0.19,0.767-0.492,1.02c-0.511,0.55-1.369,0.579-1.916,0.065c-0.01-0.01-0.021-0.021-0.03-0.03l-1.033-1.038
				l-0.763-0.766c-0.072-0.816-0.439-1.579-1.033-2.141c-0.679-0.642-1.578-0.993-2.51-0.983c-0.008-0.919-0.391-1.793-1.057-2.421
				c-0.68-0.641-1.579-0.992-2.511-0.983c-0.009-0.918-0.392-1.793-1.059-2.42c-0.68-0.64-1.578-0.992-2.51-0.983
				c-0.009-0.918-0.391-1.793-1.058-2.421c-1.408-1.311-3.583-1.311-4.991,0l-1.963,1.877l-4.602-4.635L23.71,18.146l2.979,3.46
				l-3.909,3.731c-1.075,1.015-1.128,2.712-0.118,3.792c0.038,0.041,0.077,0.08,0.118,0.119c1.075,1.005,2.729,1.043,3.849,0.089
				l4.56-2.699c0.403-0.238,0.916-0.175,1.249,0.155l9.114,9.031c0.051,0.11,0.121,0.21,0.207,0.295l2.457,2.345l0.706,0.7
				l0.014-0.014l0.101,0.094c0.269,0.247,0.423,0.595,0.426,0.96C45.46,40.551,45.315,40.881,45.063,41.116z M44.946,36.272
				L33.891,25.312c-1.001-0.992-2.54-1.183-3.751-0.466l-4.649,2.751l-0.187,0.143c-0.313,0.281-0.787,0.281-1.101,0
				c-0.248-0.227-0.266-0.612-0.04-0.861c0.013-0.014,0.025-0.027,0.04-0.04l4.029-3.841c0.191-0.185,0.446-0.287,0.711-0.286h4.236
				c0.794,0.001,1.559-0.305,2.135-0.855l2.871-2.74l11.999,12.162L44.946,36.272z M53.729,31.767L38.437,16.401l5.772-5.799
				L59.5,25.967L53.729,31.767z M8.267,22.853c-1.142,0-2.066,0.93-2.066,2.076s0.925,2.076,2.066,2.076
				c1.141,0,2.066-0.93,2.066-2.076S9.407,22.853,8.267,22.853z M53.729,28.043c1.142,0,2.066-0.929,2.066-2.076
				c0-1.146-0.925-2.076-2.066-2.076s-2.066,0.93-2.066,2.076C51.662,27.114,52.587,28.043,53.729,28.043z"/>
		</g>
	</g>
</g>
<g id="_x34_.svg_1_" enable-background="new    ">
</g>
<g id="_x35_.svg_1_" enable-background="new    ">
</g>
<g id="lcd.svg_xA0_Изображение_1_">
</g>
<g id="clean.svg_xA0_Изображение_1_">
</g>
<g id="hdd.svg_xA0_Изображение_1_">
</g>
<g id="repair.svg_xA0_Изображение_1_">
</g>
</svg>
