<svg version="1.1" xmlns="http://www.w3.org/2000/svg" xmlns:xlink="http://www.w3.org/1999/xlink" x="0px" y="0px" width="55px"
	 height="54.969px" viewBox="0 0 55 54.969" enable-background="new 0 0 55 54.969" xml:space="preserve">
<g id="Forma_1_1_" enable-background="new    ">
</g>
<g id="_x31_.svg_1_" enable-background="new    ">
</g>
<g id="_x32_.svg_1_" enable-background="new    ">
</g>
<g id="arrow.svg_1_" enable-background="new    ">
</g>
<g id="_x33_.svg_1_" enable-background="new    ">
</g>
<g id="_x34_.svg_1_" enable-background="new    ">
</g>
<g id="_x35_.svg_1_" enable-background="new    ">
</g>
<g id="lcd.svg_1_" enable-background="new    ">
</g>
<g id="clean.svg_1_" enable-background="new    ">
	<g id="clean.svg">
		<g>
			<linearGradient id="SVGID_1_" gradientUnits="userSpaceOnUse" x1="50.1855" y1="18.9224" x2="11.2641" y2="57.8438">
				<stop  offset="0" style="stop-color:#1F387D"/>
				<stop  offset="1" style="stop-color:#4179D3"/>
			</linearGradient>
			<path fill-rule="evenodd" clip-rule="evenodd" fill="url(#SVGID_1_)" d="M44.181,48.763V39.01h0.901v-0.887
				c0-2.444-2.022-4.433-4.508-4.433H33.36V3.547C33.36,1.591,31.743,0,29.754,0s-3.606,1.591-3.606,3.547V33.69h-7.213
				c-2.485,0-4.509,1.988-4.509,4.433v0.888h0.902v9.752c0,3.423,2.831,6.206,6.312,6.206h14.426v-1.048
				c1.29,0.661,2.841,1.048,4.509,1.048h8.114v-1.773C46.202,53.195,44.181,51.207,44.181,48.763z M27.951,3.547
				c0-0.979,0.809-1.773,1.803-1.773s1.804,0.795,1.804,1.773v25.711h-3.606V3.547z M27.951,31.03h3.606v2.66h-3.606V31.03z
				 M18.935,35.464h21.64c1.175,0,2.178,0.741,2.55,1.772h-26.74C16.756,36.205,17.759,35.464,18.935,35.464z M21.64,53.195
				c-2.486,0-4.509-1.988-4.509-4.433V39.01h4.509v9.753c0,1.735,0.729,3.305,1.902,4.433H21.64z M40.574,53.195
				c-3.48,0-6.313-1.988-6.313-4.433h-1.803c0,1.771,0.389,3.323,1.034,4.433h-5.542c-2.486,0-4.509-1.988-4.509-4.433V39.01h14.427
				v3.547h1.803V39.01h2.705v9.753c0,1.734,0.728,3.306,1.898,4.433H40.574z M37.869,46.103h1.803v-1.773h-1.803V46.103z
				 M6.312,45.216H4.508c0,1.59,0.389,3.092,1.078,4.419c-2.334-2.253-3.782-5.389-3.782-8.852H0
				c0,7.821,6.472,14.186,14.426,14.186v-1.773C9.952,53.195,6.312,49.615,6.312,45.216z M50.491,53.195v1.773H55v-1.773H50.491z
				 M8.115,43.443c0,1.466,1.213,2.659,2.705,2.659c1.491,0,2.704-1.193,2.704-2.659c0-1.467-1.213-2.66-2.704-2.66
				C9.328,40.783,8.115,41.977,8.115,43.443z M11.722,43.443c0,0.488-0.405,0.887-0.902,0.887s-0.901-0.398-0.901-0.887
				c0-0.489,0.404-0.887,0.901-0.887S11.722,42.954,11.722,43.443z M8.115,32.804c1.988,0,3.606-1.59,3.606-3.546
				s-1.618-3.547-3.606-3.547c-1.989,0-3.607,1.591-3.607,3.547S6.126,32.804,8.115,32.804z M8.115,27.484
				c0.994,0,1.803,0.795,1.803,1.773c0,0.978-0.809,1.772-1.803,1.772c-0.995,0-1.804-0.795-1.804-1.772
				C6.312,28.279,7.12,27.484,8.115,27.484z M6.312,41.67H4.508v1.773h1.804V41.67z M1.803,37.236H0v1.773h1.803V37.236z
				 M1.803,33.69H0v1.773h1.803V33.69z"/>
		</g>
	</g>
</g>
<g id="hdd.svg_1_" enable-background="new    ">
</g>
<g id="repair.svg_1_" enable-background="new    ">
</g>
</svg>
