<?xml version="1.0" encoding="utf-8"?>
<!-- Generator: Adobe Illustrator 16.0.2, SVG Export Plug-In . SVG Version: 6.00 Build 0)  -->
<!DOCTYPE svg PUBLIC "-//W3C//DTD SVG 1.1//EN" "http://www.w3.org/Graphics/SVG/1.1/DTD/svg11.dtd">
<svg version="1.1" xmlns="http://www.w3.org/2000/svg" xmlns:xlink="http://www.w3.org/1999/xlink" x="0px" y="0px"
	 width="54.997px" height="55px" viewBox="0 0 54.997 55" enable-background="new 0 0 54.997 55" xml:space="preserve">
<g id="Forma_1_1_" enable-background="new    ">
</g>
<g id="_x31_.svg_1_" enable-background="new    ">
</g>
<g id="_x32_.svg_1_" enable-background="new    ">
</g>
<g id="arrow.svg_1_" enable-background="new    ">
</g>
<g id="_x33_.svg_1_" enable-background="new    ">
</g>
<g id="_x34_.svg_1_" enable-background="new    ">
</g>
<g id="_x35_.svg_1_" enable-background="new    ">
	<g id="_x35_.svg">
		<g>
			<path fill-rule="evenodd" clip-rule="evenodd" fill="#FFFFFF" d="M54.99,50.382c-0.003-0.107-0.024-0.214-0.063-0.314
				c-0.006-0.013-0.016-0.023-0.021-0.036c-0.026-0.063-0.061-0.122-0.102-0.178l-6.223-8.002V15.583
				c-0.002-1.518-1.232-2.748-2.75-2.75h-1.833V2.75c-0.002-1.519-1.232-2.748-2.75-2.75H13.749C12.231,0.002,11.001,1.231,11,2.75
				v10.083H9.166c-1.518,0.002-2.748,1.232-2.749,2.75v26.269l-6.224,8.002c-0.04,0.056-0.074,0.115-0.102,0.178
				c-0.006,0.013-0.016,0.023-0.021,0.036c-0.04,0.101-0.062,0.207-0.063,0.314C0.007,50.394,0,50.404,0,50.417v1.833
				c0.002,1.518,1.232,2.748,2.75,2.75h49.497c1.518-0.002,2.748-1.232,2.75-2.75v-1.833C54.997,50.404,54.99,50.394,54.99,50.382z
				 M12.833,2.75c0.001-0.506,0.41-0.916,0.916-0.917h27.499c0.506,0.001,0.916,0.411,0.916,0.917v34.833H12.833V2.75z M8.25,15.583
				c0.001-0.506,0.41-0.916,0.916-0.916H11v22.916h-0.917c-0.506,0-0.916,0.41-0.916,0.917c0,0.506,0.41,0.917,0.916,0.917h34.831
				c0.507,0,0.917-0.411,0.917-0.917c0-0.507-0.41-0.917-0.917-0.917h-0.916V14.667h1.833c0.506,0,0.916,0.41,0.916,0.916V41.25
				H8.25V15.583z M7.782,43.083h39.434l4.99,6.417H2.791L7.782,43.083z M53.164,52.25c-0.001,0.506-0.411,0.916-0.917,0.917H2.75
				c-0.506-0.001-0.916-0.411-0.916-0.917v-0.917h51.33V52.25z M42.164,45.833H12.833c-0.506,0-0.917,0.411-0.917,0.917
				s0.411,0.917,0.917,0.917h29.331c0.507,0,0.917-0.411,0.917-0.917S42.671,45.833,42.164,45.833z M9.166,45.833H8.25
				c-0.506,0-0.917,0.411-0.917,0.917s0.411,0.917,0.917,0.917h0.916c0.507,0,0.917-0.411,0.917-0.917S9.673,45.833,9.166,45.833z
				 M46.747,45.833h-0.916c-0.506,0-0.917,0.411-0.917,0.917s0.411,0.917,0.917,0.917h0.916c0.507,0,0.917-0.411,0.917-0.917
				S47.254,45.833,46.747,45.833z M31.165,19.25c0,0.506,0.41,0.917,0.917,0.917c0.506,0,0.916-0.411,0.916-0.917
				c0-2.267-1.986-4.149-4.583-4.515V13.75c0-0.507-0.41-0.917-0.916-0.917c-0.507,0-0.917,0.41-0.917,0.917v0.985
				c-2.597,0.365-4.583,2.248-4.583,4.515c0,2.266,1.986,4.148,4.583,4.514v5.472c-1.577-0.308-2.75-1.374-2.75-2.652
				c0-0.506-0.41-0.916-0.916-0.916c-0.507,0-0.917,0.41-0.917,0.916c0,2.267,1.986,4.149,4.583,4.515v0.985
				c0,0.507,0.41,0.917,0.917,0.917c0.506,0,0.916-0.41,0.916-0.917v-0.985c2.597-0.365,4.583-2.248,4.583-4.515
				s-1.986-4.148-4.583-4.515v-5.471C29.992,16.905,31.165,17.972,31.165,19.25z M26.582,21.902c-1.577-0.308-2.75-1.375-2.75-2.652
				c0-1.278,1.173-2.345,2.75-2.652V21.902z M31.165,26.583c0,1.278-1.173,2.345-2.75,2.652v-5.305
				C29.992,24.238,31.165,25.306,31.165,26.583z M18.333,3.666h-2.75c-0.507,0-0.917,0.411-0.917,0.917
				c0,0.507,0.41,0.917,0.917,0.917h2.75c0.506,0,0.916-0.41,0.916-0.917C19.249,4.077,18.839,3.666,18.333,3.666z M16.499,7.333
				h-0.916c-0.507,0-0.917,0.41-0.917,0.917c0,0.506,0.41,0.916,0.917,0.916h0.916c0.507,0,0.917-0.41,0.917-0.916
				C17.416,7.743,17.006,7.333,16.499,7.333z M28.415,8.25c0-0.507-0.41-0.917-0.916-0.917h-7.333c-0.507,0-0.917,0.41-0.917,0.917
				c0,0.506,0.41,0.916,0.917,0.916h7.333C28.005,9.166,28.415,8.756,28.415,8.25z M21.999,5.5h2.75c0.506,0,0.916-0.41,0.916-0.917
				c0-0.506-0.41-0.916-0.916-0.916h-2.75c-0.506,0-0.917,0.41-0.917,0.916C21.082,5.09,21.493,5.5,21.999,5.5z"/>
		</g>
	</g>
</g>
<g id="lcd.svg_xA0_Изображение_1_">
</g>
<g id="clean.svg_xA0_Изображение_1_">
</g>
<g id="hdd.svg_xA0_Изображение_1_">
</g>
<g id="repair.svg_xA0_Изображение_1_">
</g>
</svg>
