<svg version="1.1" xmlns="http://www.w3.org/2000/svg" xmlns:xlink="http://www.w3.org/1999/xlink" x="0px" y="0px" width="44px"
	 height="55.969px" viewBox="0 0 44 55.969" enable-background="new 0 0 44 55.969" xml:space="preserve">
<g id="Forma_1_1_" enable-background="new    ">
</g>
<g id="_x31_.svg_1_" enable-background="new    ">
</g>
<g id="_x32_.svg_1_" enable-background="new    ">
</g>
<g id="arrow.svg_1_" enable-background="new    ">
</g>
<g id="_x33_.svg_1_" enable-background="new    ">
</g>
<g id="_x34_.svg_1_" enable-background="new    ">
</g>
<g id="_x35_.svg_1_" enable-background="new    ">
</g>
<g id="lcd.svg_1_" enable-background="new    ">
</g>
<g id="clean.svg_1_" enable-background="new    ">
</g>
<g id="hdd.svg_1_" enable-background="new    ">
	<g id="hdd.svg">
		<g>
			<linearGradient id="SVGID_1_" gradientUnits="userSpaceOnUse" x1="45.6313" y1="4.3535" x2="-1.6311" y2="51.6159">
				<stop  offset="0" style="stop-color:#1F387D"/>
				<stop  offset="1" style="stop-color:#4179D3"/>
			</linearGradient>
			<path fill-rule="evenodd" clip-rule="evenodd" fill="url(#SVGID_1_)" d="M39.37,0H4.632C2.073,0,0,2.088,0,4.663v46.643
				c0,2.575,2.073,4.663,4.632,4.663H39.37c2.558,0,4.63-2.088,4.63-4.663V4.663C44,2.088,41.927,0,39.37,0z M19.684,53.635H4.632
				c-1.277,0-2.317-1.045-2.317-2.329V39.644h0.55c1.594,2.027,3.509,3.798,5.643,5.229l-0.151,0.12
				c-0.855,0.637-1.41,1.66-1.41,2.814c0,1.93,1.556,3.498,3.474,3.498c1.147,0,2.163-0.561,2.795-1.421l1.569-2.005
				c0.422,0.131,0.848,0.252,1.277,0.359c1.188,0.299,2.398,0.508,3.621,0.624V53.635z M24.316,32.647
				c-0.285,0-0.546,0.105-0.748,0.278l-7.125,5.651c-0.1-0.041-0.202-0.08-0.3-0.123c-1.793-0.764-3.402-1.856-4.787-3.249
				c-1.382-1.394-2.468-3.016-3.226-4.819c-0.785-1.867-1.182-3.853-1.182-5.899c0-2.048,0.397-4.033,1.182-5.9
				c0.758-1.804,1.844-3.426,3.226-4.819c1.384-1.393,2.994-2.485,4.787-3.249c1.854-0.789,3.825-1.189,5.859-1.189
				c2.032,0,4.002,0.4,5.858,1.189c1.791,0.764,3.401,1.856,4.785,3.249c1.382,1.394,2.468,3.016,3.226,4.819
				c0.786,1.867,1.183,3.853,1.183,5.9c0,2.047-0.397,4.032-1.183,5.899c-0.758,1.804-1.844,3.426-3.226,4.819
				c-1.384,1.393-2.994,2.485-4.785,3.249c-1.856,0.79-3.827,1.189-5.858,1.189c-0.255,0-0.507-0.006-0.76-0.018l3.957-5.06
				c0.171-0.201,0.277-0.464,0.277-0.751C25.475,33.17,24.956,32.647,24.316,32.647z M16.876,41.202
				c0.049,0.016,0.099,0.029,0.148,0.045l-5.628,7.192l-0.022,0.029l-0.021,0.029c-0.222,0.301-0.562,0.475-0.933,0.475
				c-0.639,0-1.158-0.522-1.158-1.165c0-0.376,0.171-0.718,0.471-0.939l0.029-0.022l0.027-0.021L16.876,41.202z M41.685,51.306
				c0,1.284-1.04,2.33-2.315,2.33H22.001V46.64c-1.961,0-3.861-0.257-5.669-0.738l3.208-4.099c0.804,0.112,1.625,0.174,2.461,0.174
				c9.592,0,17.369-7.83,17.369-17.49s-7.777-17.49-17.369-17.49c-9.594,0-17.369,7.83-17.369,17.49
				c0,6.909,3.978,12.882,9.753,15.724l-3.954,3.137c-2.517-1.562-4.698-3.618-6.412-6.033H2.315V4.663
				c0-1.285,1.04-2.331,2.317-2.331H39.37c1.275,0,2.315,1.046,2.315,2.331V51.306z M39.37,3.498c-0.64,0-1.159,0.521-1.159,1.165
				c0,0.645,0.519,1.167,1.159,1.167c0.639,0,1.157-0.522,1.157-1.167C40.526,4.02,40.009,3.498,39.37,3.498z M39.37,50.137
				c-0.64,0-1.159,0.523-1.159,1.169c0,0.643,0.519,1.165,1.159,1.165c0.639,0,1.157-0.522,1.157-1.165
				C40.526,50.66,40.009,50.137,39.37,50.137z M4.632,3.498c-0.639,0-1.158,0.521-1.158,1.165c0,0.645,0.519,1.167,1.158,1.167
				c0.64,0,1.157-0.522,1.157-1.167C5.789,4.02,5.271,3.498,4.632,3.498z M22.001,23.32c-0.64,0-1.159,0.521-1.159,1.166
				c0,0.644,0.519,1.166,1.159,1.166c0.639,0,1.157-0.522,1.157-1.166C23.158,23.842,22.64,23.32,22.001,23.32z M23.158,12.826
				c0-0.644-0.518-1.167-1.157-1.167c-7.036,0-12.738,5.743-12.738,12.827c0,0.644,0.519,1.166,1.158,1.166
				c0.64,0,1.159-0.522,1.159-1.166c0-2.803,1.084-5.438,3.051-7.421c1.969-1.982,4.585-3.073,7.37-3.073
				C22.64,13.992,23.158,13.47,23.158,12.826z M27.79,24.486c0-3.22-2.592-5.83-5.789-5.83c-3.199,0-5.791,2.61-5.791,5.83
				s2.592,5.831,5.791,5.831C25.198,30.317,27.79,27.706,27.79,24.486z M22.001,27.984c-1.917,0-3.474-1.57-3.474-3.498
				c0-1.929,1.557-3.498,3.474-3.498c1.915,0,3.474,1.569,3.474,3.498C25.475,26.414,23.916,27.984,22.001,27.984z M4.632,50.137
				c-0.639,0-1.158,0.523-1.158,1.169c0,0.643,0.519,1.165,1.158,1.165c0.64,0,1.157-0.522,1.157-1.165
				C5.789,50.66,5.271,50.137,4.632,50.137z M25.812,46.98c-0.226,0.229-0.339,0.528-0.337,0.827v3.496
				c-0.002,0.299,0.112,0.597,0.337,0.825c0.453,0.454,1.186,0.454,1.639,0c0.226-0.228,0.339-0.526,0.339-0.823v-3.498
				c0-0.301-0.114-0.598-0.339-0.827C26.998,46.526,26.265,46.526,25.812,46.98z M29.286,46.98
				c-0.226,0.229-0.339,0.528-0.337,0.827v3.496c-0.001,0.299,0.112,0.597,0.337,0.825c0.453,0.454,1.186,0.454,1.639,0
				c0.226-0.228,0.339-0.526,0.339-0.823v-3.498c0-0.301-0.114-0.598-0.339-0.827C30.472,46.526,29.739,46.526,29.286,46.98z
				 M32.76,46.98c-0.226,0.229-0.339,0.528-0.338,0.827v3.496c-0.001,0.299,0.112,0.597,0.338,0.825
				c0.453,0.454,1.186,0.454,1.638,0c0.226-0.229,0.339-0.526,0.339-0.825v-3.496c0-0.299-0.114-0.598-0.339-0.827
				C33.945,46.526,33.212,46.526,32.76,46.98z"/>
		</g>
	</g>
</g>
<g id="repair.svg_1_" enable-background="new    ">
</g>
</svg>
