<?xml version="1.0" encoding="utf-8"?>
<!-- Generator: Adobe Illustrator 16.0.2, SVG Export Plug-In . SVG Version: 6.00 Build 0)  -->
<!DOCTYPE svg PUBLIC "-//W3C//DTD SVG 1.1//EN" "http://www.w3.org/Graphics/SVG/1.1/DTD/svg11.dtd">
<svg version="1.1" xmlns="http://www.w3.org/2000/svg" xmlns:xlink="http://www.w3.org/1999/xlink" x="0px" y="0px"
	 width="50.271px" height="53.467px" viewBox="0 0 50.271 53.467" enable-background="new 0 0 50.271 53.467" xml:space="preserve">
<g id="Forma_1_1_" enable-background="new    ">
</g>
<g id="_x31_.svg_1_" enable-background="new    ">
	<g id="_x31_.svg">
		<g>
			<path fill-rule="evenodd" clip-rule="evenodd" fill="#FFFFFF" d="M37.701,32.971c0-0.491-0.402-0.891-0.898-0.891h-5.386
				c-0.495,0-0.897,0.399-0.897,0.891c0,0.492,0.402,0.892,0.897,0.892h5.386C37.299,33.862,37.701,33.463,37.701,32.971z
				 M34.11,9.803V5.348c0-0.492-0.402-0.892-0.897-0.892c-0.496,0-0.898,0.399-0.898,0.892v4.455c0,2.456,2.014,4.455,4.488,4.455
				h8.079v16.931c0,0.492,0.402,0.892,0.897,0.892s0.897-0.399,0.897-0.892V13.367c0-0.492-0.402-0.892-0.897-0.892h-8.977
				C35.318,12.476,34.11,11.276,34.11,9.803z M28.725,22.278c0,0.491,0.402,0.891,0.897,0.891h7.181
				c0.496,0,0.897-0.399,0.897-0.891c0-0.492-0.402-0.892-0.897-0.892h-7.181C29.126,21.387,28.725,21.786,28.725,22.278z
				 M26.929,22.278c0-0.492-0.402-0.892-0.897-0.892h-5.386c-0.496,0-0.898,0.399-0.898,0.892c0,0.491,0.402,0.891,0.898,0.891
				h5.386C26.527,23.169,26.929,22.77,26.929,22.278z M20.646,26.733c-0.496,0-0.898,0.399-0.898,0.891
				c0,0.492,0.402,0.892,0.898,0.892h1.795c0.496,0,0.898-0.399,0.898-0.892c0-0.491-0.402-0.891-0.898-0.891H20.646z M29.622,16.04
				h-8.976c-0.496,0-0.898,0.399-0.898,0.892c0,0.491,0.402,0.891,0.898,0.891h8.976c0.496,0,0.897-0.399,0.897-0.891
				C30.52,16.439,30.118,16.04,29.622,16.04z M26.032,28.516h8.976c0.496,0,0.898-0.399,0.898-0.892
				c0-0.491-0.402-0.891-0.898-0.891h-8.976c-0.496,0-0.898,0.399-0.898,0.891C25.134,28.116,25.536,28.516,26.032,28.516z
				 M31.417,37.427c-0.496,0-0.897,0.398-0.897,0.891s0.402,0.892,0.897,0.892h1.795c0.495,0,0.897-0.399,0.897-0.892
				s-0.402-0.891-0.897-0.891H31.417z M27.827,32.08h-7.181c-0.496,0-0.898,0.399-0.898,0.891c0,0.492,0.402,0.892,0.898,0.892
				h7.181c0.496,0,0.898-0.399,0.898-0.892C28.725,32.479,28.322,32.08,27.827,32.08z M27.827,37.427h-7.181
				c-0.496,0-0.898,0.398-0.898,0.891s0.402,0.892,0.898,0.892h7.181c0.496,0,0.898-0.399,0.898-0.892S28.322,37.427,27.827,37.427z
				 M49.199,36.706l-1.795-1.782c-1.379-1.37-3.482-1.367-4.859,0L30.783,46.599c-0.168,0.167-0.263,0.394-0.263,0.63v5.347
				c0,0.492,0.402,0.891,0.897,0.891h5.386c0.238,0,0.467-0.094,0.635-0.261L49.199,41.53C50.629,40.11,50.629,38.126,49.199,36.706
				z M41.383,38.596l1.424,1.413l-7.799,7.742l-1.423-1.413L41.383,38.596z M32.315,51.684v-4.086l4.117,4.086H32.315z
				 M37.701,50.424l-1.424-1.413l7.799-7.742l1.423,1.413L37.701,50.424z M47.93,40.27l-1.161,1.152l-4.117-4.086l1.161-1.152
				c0.709-0.703,1.608-0.707,2.321,0l1.795,1.782C48.656,38.688,48.656,39.549,47.93,40.27z M27.827,51.684H4.488
				c-1.485,0-2.693-1.199-2.693-2.673V4.456c0-1.474,1.208-2.673,2.693-2.673h28.353l8.713,8.649c0.351,0.349,0.918,0.349,1.269,0
				s0.351-0.911,0-1.26l-8.977-8.911C33.68,0.094,33.451,0,33.213,0H4.488C2.014,0,0,1.999,0,4.456v44.555
				c0,2.457,2.014,4.456,4.488,4.456h23.339c0.495,0,0.897-0.399,0.897-0.892S28.322,51.684,27.827,51.684z M27.827,42.772h-7.181
				c-0.496,0-0.898,0.4-0.898,0.892c0,0.492,0.402,0.892,0.898,0.892h7.181c0.496,0,0.898-0.399,0.898-0.892
				C28.725,43.173,28.322,42.772,27.827,42.772z M16.158,16.932c0-0.492-0.402-0.892-0.897-0.892H9.874
				c-0.495,0-0.897,0.399-0.897,0.892v5.347c0,0.491,0.402,0.891,0.897,0.891h5.386c0.495,0,0.897-0.399,0.897-0.891V16.932z
				 M14.362,21.387h-3.59v-3.564h3.59V21.387z M9.874,44.556h5.386c0.496,0,0.898-0.399,0.898-0.892v-5.347
				c0-0.492-0.402-0.891-0.898-0.891H9.874c-0.496,0-0.897,0.398-0.897,0.891v5.347C8.977,44.156,9.378,44.556,9.874,44.556z
				 M10.772,39.209h3.59v3.563h-3.59V39.209z M11.035,33.602c0.169,0.167,0.398,0.261,0.635,0.261c0.03,0,0.058-0.001,0.089-0.005
				c0.268-0.025,0.509-0.17,0.658-0.392l3.59-5.347c0.274-0.41,0.164-0.964-0.249-1.236c-0.414-0.273-0.97-0.162-1.245,0.247
				l-2.983,4.441l-1.021-1.013c-0.351-0.349-0.918-0.349-1.27,0c-0.351,0.349-0.351,0.912,0,1.261L11.035,33.602z"/>
		</g>
	</g>
</g>
<g id="_x32_.svg_1_" enable-background="new    ">
</g>
<g id="arrow.svg_1_" enable-background="new    ">
</g>
<g id="_x33_.svg_1_" enable-background="new    ">
</g>
<g id="_x34_.svg_1_" enable-background="new    ">
</g>
<g id="_x35_.svg_1_" enable-background="new    ">
</g>
<g id="lcd.svg_xA0_Изображение_1_">
</g>
<g id="clean.svg_xA0_Изображение_1_">
</g>
<g id="hdd.svg_xA0_Изображение_1_">
</g>
<g id="repair.svg_xA0_Изображение_1_">
</g>
</svg>
